PathFileType	4	(X/Y/Z)	Patient4_TMGait_0pt6_01_right_40.trc.trc
DataRate	CameraRate	NumFrames	NumMarkers	Units	OrigDataRate	OrigDataStartFrame	OrigNumFrames
83.333333333333	83.333333333333	4	33	mm	83.333333333333	71	       141
Frame#	Time	Sacral			L.Shoulder			Chest			R.Shoulder			Neck			R.ASIS			L.ASIS			R.Thigh.Superior			R.Thigh.Lateral			R.Thigh.Inferior			R.Patella			L.Thigh.Superior			L.Thigh.Lateral			L.Thigh.Inferior			L.Patella			L.Shank.Superior			L.Shank.Lateral			L.Shank.Inferior			R.Shank.Superior			R.Shank.Lateral			R.Shank.Inferior			R.Heel			R.Midfoot.Superior			R.Midfoot.Lateral			R.Toe			L.Heel			L.Midfoot.Lateral			L.Midfoot.Superior			L.Toe			L.Elbow			L.Wrist			R.Elbow			R.Wrist			
		X1	Y1	Z1	X2	Y2	Z2	X3	Y3	Z3	X4	Y4	Z4	X5	Y5	Z5	X6	Y6	Z6	X7	Y7	Z7	X8	Y8	Z8	X9	Y9	Z9	X10	Y10	Z10	X11	Y11	Z11	X12	Y12	Z12	X13	Y13	Z13	X14	Y14	Z14	X15	Y15	Z15	X16	Y16	Z16	X17	Y17	Z17	X18	Y18	Z18	X19	Y19	Z19	X20	Y20	Z20	X21	Y21	Z21	X22	Y22	Z22	X23	Y23	Z23	X24	Y24	Z24	X25	Y25	Z25	X26	Y26	Z26	X27	Y27	Z27	X28	Y28	Z28	X29	Y29	Z29	X30	Y30	Z30	X31	Y31	Z31	X32	Y32	Z32	X33	Y33	Z33	

71	48.940000000000	771.621848208439	1007.239778112908	505.933793927326	913.889037820565	1433.012712426801	313.543955962412	1045.318747991572	1359.006614153491	449.525582423687	998.171278991851	1429.186772730685	636.290709299635	925.955129699666	1488.600634292659	467.406398648487	1006.152698725712	931.455516036895	591.593794735367	960.018734441896	955.062841172336	320.602908776201	991.801163682383	718.577862985286	563.763672250958	883.252092640722	629.234626736475	626.826607125913	936.300828248417	562.266075721333	543.990580248254	912.121063093520	478.968744293852	546.391333855997	1038.178249054849	771.825060207743	348.202311458926	982.673051126965	637.182969039319	283.927726087904	1092.218357504591	583.089064823444	337.561163489607	1119.118225697971	519.062692914460	336.667273932235	1105.552779024052	446.530597881645	332.716653818075	1041.676517662636	311.185672304916	296.919526028966	1138.501350893419	220.111986900819	348.279136035698	871.168550880084	397.517893917994	551.899904826399	785.839855705364	303.799142827812	611.864331570255	811.903749525717	205.990106940840	543.691136361019	658.325114189419	51.214561285758	505.424407699528	831.713473212869	97.319322380228	545.526027991773	739.992280360507	38.106155633439	579.533963225207	948.391525067050	38.303509803757	572.516375701690	1066.707418601038	43.679722687412	406.790793861711	1131.129231303988	44.318690887152	318.646519147594	1203.550535129362	121.559746869118	327.437815776755	1333.164122736306	90.362653287099	288.506762210829	777.212178158682	1101.918501758802	225.433830029614	744.899748110389	844.573359650701	236.414316984690	1169.069519981525	1136.487520262449	740.428682581804	1388.487941973228	1240.173821425775	673.556876493390	
72	48.952000000000	773.104898244129	1006.225011152128	503.734859769134	914.373419938403	1432.030818006549	311.635652477502	1045.622462644888	1358.422720552475	447.947424621997	997.805838158357	1428.419084425981	634.691200639086	925.967113845498	1487.738966688874	465.604541750798	1006.977702006066	930.535482538122	590.627665647393	962.182739758879	953.793468016676	319.241820691147	992.126310460610	717.475521882485	563.472267287000	882.677854887256	628.666687802974	625.888252606842	936.036377906866	561.127611236715	543.567274209645	911.046375264284	477.447748677097	545.770209358421	1039.945255733563	770.072803459366	347.595358790053	983.313044029950	635.363558084246	284.590028525712	1092.440340090613	581.099037722026	338.472227842549	1117.910804220457	515.929829933705	338.521789703812	1103.525877893858	442.911350768154	334.639950627663	1037.224519604442	308.596736815583	299.325180440152	1131.936297318563	215.971344754718	351.639351983813	868.902427943832	396.366786532019	551.318947801493	782.047759553451	304.173348551263	611.463988664412	806.639834148625	205.802857791570	543.638979364010	651.260844649167	52.398333155444	505.702749783706	824.846153450355	97.530042797416	545.767953968637	732.876976783867	38.510273981397	579.667894545814	941.233685593319	38.092538969558	572.608807232965	1055.891608005580	42.083722676073	410.240449120259	1120.096856730700	41.689507202887	321.893892155994	1195.001438332597	116.184860925891	331.518323559073	1323.688994770861	81.064706279155	291.837484633820	777.484008598545	1101.144113874064	223.493240890149	746.141836253823	843.621372596263	234.479706490369	1167.083896516414	1134.282263741141	739.030804896271	1387.042264929160	1237.456100565607	672.843988102952	
73	48.964000000000	774.646640013029	1005.219069901444	501.335274798036	915.086855493770	1431.015257125788	309.529537292935	1046.038329296209	1357.904170778017	446.332752381104	997.334746933870	1427.752168256944	633.004880796084	926.068617508206	1486.935367313692	463.613310219386	1007.867163607250	929.599090619935	589.657924557531	964.594273214019	952.624005722590	317.908848388828	992.682441819000	716.380481868585	563.103802480343	882.386608912911	628.045628342437	624.789948597720	936.164073619235	559.957078257697	543.008953411460	910.420964884043	475.759053225390	545.023114186561	1041.848425305206	768.214885748126	347.214107272344	984.091817762717	633.780734563055	285.077410501051	1092.553444212785	579.128036506965	339.629303812349	1116.448658289126	512.848650109566	340.566489729923	1101.327663532918	439.461960925945	336.478894206850	1032.832485816970	306.195833332834	301.269128948775	1125.338554775387	212.078527565219	354.732813783038	866.956041701858	395.142091256931	550.614246698242	778.472616346853	304.591544324767	610.917224841882	801.517394064148	205.642052562937	543.514466646261	644.234523899061	53.740306542494	505.950230391565	818.041698339337	97.757775758004	545.984340496107	725.785183783261	39.013419655010	579.800792818011	934.089639390191	37.904812972366	572.703005858009	1045.028367351460	40.637289720692	413.042082376608	1109.187450611782	39.474076591073	324.627727771447	1186.401613260311	111.259122120139	335.399427428786	1314.246963298694	72.472921854498	295.188347844780	778.466581651756	1100.074769762290	221.284920381841	748.408830883687	842.342361966423	232.219038216412	1164.339384910046	1131.659983630608	737.689722725034	1385.433547113774	1233.273182763590	672.383330141916	
74	48.976000000000	776.178141797782	1004.301571071483	498.764160121298	916.033402694859	1430.024933473804	307.247918319300	1046.572877413450	1357.494098182169	444.695030193473	996.790078126152	1427.248073376106	631.236618400022	926.274672958053	1486.249305333796	461.442292783213	1008.802416246020	928.708585306963	588.659376132083	967.173002512351	951.632336562504	316.601422659939	993.463445391132	715.358591372765	562.588396619133	882.433320220913	627.407419783808	623.522908001889	936.727626793151	558.803706294180	542.291035481783	910.325151360181	473.924523877331	544.175375035288	1043.827855179310	766.365510359637	347.030323207568	984.975013572757	632.521646132922	285.330365363609	1092.565447822948	577.294076703313	340.908589246340	1114.809443163751	509.995693980034	342.622894580686	1099.057977143996	436.363586196347	338.100104859010	1028.694221501012	304.113842191258	302.634185785646	1118.974029340639	208.637023350637	357.397526814035	865.382853288113	393.894943769606	549.814315720061	775.159747783237	305.115471298438	610.242318011198	796.586268867076	205.563359352168	543.339980459570	637.268224538911	55.329423574224	506.180462984530	811.345322735551	98.008388123514	546.193081203353	718.732234928091	39.654689310653	579.935276098679	926.963005655374	37.745391562281	572.790877375320	1034.574938249473	39.435609581323	415.169125846091	1098.804508781570	37.762196026147	326.772935583115	1178.046226139714	107.032867870958	338.858768359137	1305.156059358110	65.020480820954	298.285956226022	780.234723824825	1098.739584140738	218.814169510934	751.712192806325	840.779655958762	229.625931529830	1160.830036891455	1128.707317579995	736.403740411881	1383.645746275010	1227.599807954916	672.171864396241	
